<svg width="382" height="374" viewBox="0 0 382 374" fill="none" xmlns="http://www.w3.org/2000/svg">
<path d="M367.649 94.6995L351.633 179.149C349.392 177.83 347.065 176.671 344.664 175.682C345.633 168.512 345.283 164.531 343.776 162.273C343.996 161.897 344.148 161.486 344.225 161.059C344.416 160.052 344.201 159.01 343.63 158.163C343.058 157.316 342.176 156.733 341.177 156.541C340.177 156.349 339.144 156.565 338.304 157.142C337.463 157.718 336.884 158.607 336.694 159.614C336.674 159.73 336.654 159.853 336.64 159.967C333.674 161.31 331.728 165.887 329.769 171.382L329.73 171.783C317.654 170.332 305.435 172.822 294.867 178.886C294.053 164.377 299.08 145.332 294.644 138.957C294.87 138.583 295.026 138.169 295.101 137.738C295.207 137.185 295.191 136.615 295.055 136.069C294.918 135.523 294.666 135.014 294.313 134.577C293.962 134.14 293.519 133.786 293.016 133.539C292.514 133.292 291.965 133.159 291.407 133.149C290.848 133.139 290.294 133.252 289.784 133.48C289.274 133.709 288.818 134.047 288.45 134.471C288.083 134.895 287.813 135.395 287.657 135.936C287.502 136.476 287.465 137.045 287.55 137.601C277.496 143.679 275.855 181.565 262.765 179.435C249.586 177.284 269.117 123.331 259.338 111.144C259.638 110.709 259.842 110.214 259.935 109.692C260.03 109.193 260.026 108.681 259.924 108.184C259.823 107.688 259.624 107.216 259.341 106.796C259.059 106.377 258.697 106.017 258.277 105.739C257.855 105.46 257.385 105.267 256.89 105.172C256.396 105.077 255.887 105.081 255.394 105.183C254.902 105.286 254.433 105.486 254.017 105.771C253.601 106.055 253.244 106.42 252.967 106.844C252.691 107.268 252.5 107.743 252.406 108.241C252.337 108.594 252.319 108.954 252.351 109.312C237.848 116.704 237.047 195.645 216.143 192.112C195.616 188.645 218.343 126.18 208.29 113.789C208.363 113.593 208.42 113.392 208.458 113.187C208.553 112.688 208.55 112.175 208.447 111.678C208.344 111.181 208.147 110.709 207.864 110.289C207.58 109.869 207.217 109.509 206.797 109.23C206.376 108.951 205.904 108.758 205.408 108.663C204.914 108.568 204.405 108.572 203.913 108.675C203.418 108.778 202.95 108.978 202.534 109.263C202.117 109.548 201.76 109.914 201.483 110.338C201.206 110.762 201.015 111.237 200.921 111.736C200.887 111.92 200.866 112.106 200.858 112.292C186.639 118.588 178.763 170.168 170.465 169.056L191.019 60.6724L367.649 94.6995ZM237.859 79.2239C238.013 78.4162 237.925 77.5809 237.607 76.8235C237.289 76.0662 236.755 75.421 236.074 74.9693C235.392 74.5174 234.593 74.2797 233.776 74.2858C232.961 74.2919 232.165 74.5417 231.49 75.0036C230.815 75.4656 230.291 76.1189 229.985 76.8809C229.678 77.6428 229.603 78.4794 229.768 79.2847C229.932 80.0899 230.332 80.8278 230.913 81.4048C231.494 81.9817 232.232 82.3721 233.033 82.5265C234.107 82.7295 235.217 82.4963 236.121 81.8775C237.026 81.2589 237.651 80.305 237.859 79.2239ZM220.597 75.8932C220.751 75.0855 220.663 74.2502 220.345 73.4929C220.027 72.7356 219.494 72.0903 218.812 71.6386C218.13 71.1867 217.331 70.949 216.515 70.9551C215.698 70.9612 214.904 71.211 214.228 71.6729C213.552 72.1349 213.029 72.7882 212.723 73.5502C212.416 74.3121 212.341 75.1487 212.506 75.954C212.671 76.7592 213.069 77.4971 213.65 78.0741C214.231 78.651 214.97 79.0414 215.771 79.1958C216.846 79.4027 217.958 79.1709 218.864 78.5517C219.769 77.9324 220.392 76.976 220.597 75.8932ZM203.34 72.5725C203.492 71.7652 203.404 70.9306 203.086 70.1741C202.767 69.4174 202.234 68.7729 201.552 68.3219C200.871 67.871 200.072 67.6337 199.256 67.6403C198.441 67.6469 197.645 67.897 196.971 68.3589C196.297 68.8209 195.773 69.474 195.467 70.2357C195.162 70.9973 195.086 71.8333 195.252 72.638C195.417 73.4426 195.815 74.1799 196.396 74.7564C196.977 75.333 197.714 75.7229 198.515 75.8771C199.59 76.0818 200.701 75.8489 201.605 75.2295C202.51 74.61 203.133 73.6545 203.34 72.5725Z" fill="white"/>
<path d="M363.24 188.168C373.906 198.917 379.899 213.496 379.899 228.698C379.899 243.899 373.906 258.479 363.24 269.229C352.573 279.977 338.107 286.015 323.023 286.015C307.937 286.015 293.471 279.977 282.804 269.229L323.023 228.698L363.24 188.168Z" fill="#F7CEDC"/>
<path d="M363.24 188.167L323.023 228.694L282.804 188.164C290.747 180.168 300.855 174.717 311.863 172.496C322.87 170.274 334.284 171.382 344.668 175.677C347.068 176.668 349.397 177.827 351.636 179.144C355.875 181.634 359.775 184.668 363.24 188.167Z" fill="#006B99"/>
<path d="M343.787 162.273C345.294 164.531 345.644 168.512 344.675 175.682C339.897 173.701 334.873 172.39 329.741 171.782L329.782 171.38C331.741 165.886 333.687 161.308 336.653 159.965C336.569 160.843 336.786 161.724 337.268 162.461C337.749 163.197 338.466 163.745 339.299 164.014C340.133 164.284 341.033 164.258 341.848 163.94C342.665 163.623 343.351 163.034 343.789 162.271L343.787 162.273Z" fill="white"/>
<path d="M341.189 156.542C342.187 156.734 343.07 157.317 343.641 158.164C344.212 159.011 344.426 160.053 344.237 161.059C344.16 161.488 344.007 161.899 343.787 162.273C342.84 160.948 341.426 160.041 339.834 159.736C338.778 159.436 337.651 159.518 336.65 159.967C336.662 159.853 336.683 159.731 336.704 159.614C336.799 159.115 336.988 158.64 337.264 158.215C337.54 157.791 337.897 157.425 338.314 157.14C338.73 156.854 339.198 156.655 339.691 156.552C340.185 156.45 340.694 156.446 341.189 156.542Z" fill="#006B99"/>
<path d="M343.787 162.273C343.347 163.037 342.664 163.626 341.847 163.942C341.03 164.26 340.131 164.286 339.298 164.016C338.463 163.748 337.747 163.199 337.266 162.462C336.784 161.725 336.568 160.846 336.651 159.967C337.653 159.518 338.781 159.437 339.837 159.737C341.426 160.041 342.84 160.948 343.787 162.273Z" fill="#006B99"/>
<path d="M323.023 228.694L282.804 269.224C277.52 263.903 273.327 257.585 270.469 250.63C267.609 243.676 266.135 236.222 266.135 228.694C266.135 221.166 267.609 213.711 270.469 206.758C273.327 199.803 277.52 193.485 282.804 188.164L323.023 228.694Z" fill="#CCEFF6"/>
<path d="M292.065 133.223C292.559 133.318 293.031 133.509 293.451 133.788C293.874 134.066 294.236 134.425 294.519 134.845C294.803 135.265 295 135.737 295.103 136.234C295.204 136.731 295.207 137.243 295.113 137.742C295.037 138.174 294.882 138.587 294.655 138.962C293.968 137.927 292.907 137.203 291.7 136.941C291.002 136.768 290.275 136.737 289.566 136.852C288.855 136.965 288.174 137.222 287.563 137.605C287.468 136.994 287.521 136.369 287.717 135.783C287.911 135.197 288.245 134.667 288.686 134.237C289.127 133.807 289.664 133.491 290.253 133.315C290.84 133.138 291.463 133.107 292.065 133.223Z" fill="#006B99"/>
<path d="M294.655 138.962C299.092 145.33 294.058 164.375 294.878 178.889C287.524 183.117 281.197 188.944 276.358 195.945C271.52 202.947 268.291 210.949 266.907 219.366L231.487 212.544L164.655 199.671L169.799 172.547L170.465 169.062C178.763 170.173 186.638 118.594 200.877 112.3C200.839 113.221 201.128 114.126 201.691 114.851C202.256 115.576 203.059 116.074 203.956 116.255C204.853 116.436 205.784 116.288 206.582 115.837C207.381 115.387 207.993 114.664 208.307 113.799C218.363 126.191 195.635 188.655 216.162 192.122C237.068 195.655 237.864 116.714 252.37 109.323C252.443 110.113 252.754 110.861 253.264 111.466C253.773 112.071 254.455 112.503 255.216 112.703C255.979 112.903 256.783 112.862 257.521 112.585C258.258 112.308 258.893 111.808 259.339 111.154C269.119 123.342 249.582 177.295 262.765 179.446C275.857 181.574 277.499 143.689 287.553 137.611C287.673 138.4 288.031 139.133 288.582 139.707C289.131 140.282 289.845 140.67 290.623 140.819C291.4 140.968 292.206 140.87 292.927 140.538C293.647 140.207 294.248 139.658 294.646 138.968L294.655 138.962Z" fill="white"/>
<path d="M291.7 136.941C292.907 137.203 293.967 137.927 294.655 138.962C294.257 139.652 293.657 140.2 292.936 140.532C292.216 140.864 291.41 140.962 290.633 140.813C289.855 140.664 289.14 140.276 288.591 139.701C288.041 139.127 287.681 138.394 287.563 137.605C288.174 137.222 288.855 136.965 289.564 136.851C290.275 136.737 291.001 136.768 291.7 136.941Z" fill="#006B99"/>
<path d="M256.906 105.173C257.905 105.367 258.787 105.951 259.359 106.799C259.93 107.647 260.145 108.689 259.956 109.696C259.86 110.218 259.652 110.713 259.349 111.148C258.409 109.943 257.064 109.127 255.566 108.855C254.478 108.639 253.348 108.801 252.362 109.317C252.33 108.959 252.348 108.598 252.417 108.245C252.51 107.746 252.701 107.27 252.977 106.846C253.253 106.421 253.611 106.055 254.028 105.77C254.446 105.484 254.914 105.285 255.409 105.182C255.901 105.08 256.41 105.077 256.906 105.173Z" fill="#006B99"/>
<path d="M259.349 111.149C258.903 111.803 258.267 112.302 257.531 112.579C256.792 112.856 255.988 112.898 255.226 112.698C254.465 112.497 253.783 112.065 253.274 111.46C252.764 110.855 252.452 110.107 252.38 109.317C253.366 108.802 254.495 108.639 255.584 108.855C257.075 109.131 258.413 109.947 259.349 111.149Z" fill="#006B99"/>
<path d="M234.582 74.3527C235.386 74.5063 236.124 74.8966 236.707 75.4738C237.289 76.0511 237.689 76.7895 237.854 77.5958C238.021 78.4019 237.946 79.2396 237.639 80.0027C237.333 80.766 236.808 81.4202 236.132 81.883C235.456 82.3456 234.66 82.596 233.843 82.6021C233.026 82.6083 232.226 82.3701 231.543 81.9178C230.86 81.4655 230.327 80.8191 230.007 80.0608C229.69 79.3024 229.603 78.4659 229.757 77.6573C229.964 76.5759 230.59 75.6214 231.494 75.0023C232.397 74.3832 233.508 74.1497 234.582 74.3527Z" fill="#F7CEDC"/>
<path d="M217.318 71.0295C218.12 71.1835 218.859 71.5737 219.44 72.1506C220.021 72.7273 220.42 73.4652 220.586 74.2703C220.751 75.0757 220.676 75.9124 220.369 76.6745C220.063 77.4367 219.539 78.0903 218.864 78.5524C218.189 79.0144 217.393 79.2645 216.576 79.2707C215.761 79.2768 214.962 79.0391 214.28 78.5874C213.597 78.1355 213.065 77.4901 212.747 76.7328C212.429 75.9753 212.341 75.1399 212.493 74.3321C212.7 73.2498 213.323 72.2938 214.228 71.6745C215.132 71.0552 216.244 70.8233 217.318 71.0295Z" fill="#F7CEDC"/>
<path d="M203.933 250.517L216.202 316.056L206.458 317.908L194.196 252.37L203.933 250.517Z" fill="#CCEFF6"/>
<path d="M205.426 108.665C206.426 108.858 207.309 109.443 207.88 110.291C208.452 111.14 208.667 112.182 208.477 113.189C208.437 113.394 208.381 113.596 208.307 113.791C207.439 112.686 206.185 111.956 204.802 111.749C203.468 111.54 202.105 111.729 200.877 112.292C200.885 112.106 200.906 111.92 200.938 111.737C201.131 110.73 201.71 109.841 202.551 109.265C203.394 108.689 204.428 108.473 205.426 108.665Z" fill="#006B99"/>
<path d="M204.802 111.751C206.185 111.958 207.439 112.688 208.307 113.793C207.991 114.658 207.379 115.381 206.582 115.832C205.784 116.282 204.852 116.43 203.956 116.249C203.059 116.068 202.255 115.57 201.691 114.845C201.126 114.12 200.837 113.215 200.877 112.294C202.104 111.731 203.468 111.542 204.802 111.751Z" fill="#006B99"/>
<path d="M197.284 214.991L187.543 216.843L194.197 252.387L203.938 250.535L197.284 214.991Z" fill="#F7CEDC"/>
<path d="M200.062 67.7075C200.865 67.8615 201.603 68.2515 202.184 68.8284C202.765 69.4053 203.165 70.143 203.33 70.9483C203.495 71.7536 203.42 72.5902 203.113 73.3525C202.807 74.1146 202.283 74.7681 201.608 75.2302C200.934 75.6923 200.138 75.9423 199.321 75.9485C198.505 75.9548 197.706 75.7171 197.024 75.2652C196.342 74.8135 195.809 74.1681 195.491 73.4106C195.173 72.6533 195.085 71.8178 195.239 71.0101C195.444 69.9284 196.069 68.9735 196.974 68.3546C197.878 67.7354 198.988 67.5029 200.062 67.7075Z" fill="#F7CEDC"/>
<path d="M183.488 293.805L188.634 321.293V321.3L178.896 323.146L173.747 295.654L183.488 293.805Z" fill="#CCEFF6"/>
<path d="M169.724 220.225L159.982 222.077L173.759 295.666L183.5 293.813L169.724 220.225Z" fill="#F7CEDC"/>
<path d="M151.815 277.079L161.069 326.536L151.329 328.388L142.069 278.93L151.807 277.079H151.815Z" fill="#CCEFF6"/>
<path d="M142.151 225.451L151.815 277.079H151.807L142.069 278.932L132.405 227.304L142.151 225.451Z" fill="#F7CEDC"/>
<path d="M139.007 66.5281C141.961 77.8091 141.121 89.7586 136.618 100.507C128.865 118.668 126.815 138.786 130.743 158.156L130.952 159.175C131.48 161.698 131.032 164.327 129.7 166.528C128.367 168.729 126.251 170.334 123.784 171.013L122.133 171.446L122.114 171.372L102.301 95.1699C100.862 102.955 96.4995 102.915 92.8042 100.174C95.2153 94.6803 94.7235 85.7958 89.7082 87.1181C84.3584 88.5226 88.0139 96.6206 92.8042 100.174C90.9268 104.462 87.2791 106.685 82.6502 100.359L102.459 176.571L102.478 176.639L101.2 176.979C100.401 177.178 99.5808 177.281 98.7573 177.284C96.6239 177.279 94.5474 176.589 92.829 175.315C91.1107 174.04 89.8397 172.247 89.2005 170.197C83.2128 151.031 71.5431 134.173 55.7619 121.892C49.1506 116.719 43.8578 110.033 40.3222 102.388C36.7866 94.7431 35.11 86.3587 35.4313 77.9303C35.7526 69.5018 38.0628 61.2718 42.1701 53.9227C46.2774 46.5735 52.0636 40.3166 59.0493 35.6707C66.035 31.0247 74.0188 28.1236 82.339 27.2077C90.6592 26.2918 99.0762 27.3873 106.892 30.4038C114.709 33.4202 121.699 38.2705 127.284 44.5528C132.869 50.835 136.888 58.3683 139.007 66.5281Z" fill="#FAE173"/>
<path d="M133.926 184.201C134.097 184.846 134.139 185.52 134.05 186.181C133.961 186.844 133.743 187.482 133.408 188.06C133.074 188.636 132.629 189.14 132.1 189.543C131.571 189.947 130.968 190.239 130.326 190.406L105.296 197.011C104.654 197.182 103.987 197.222 103.33 197.13C102.673 197.039 102.041 196.817 101.469 196.48C100.897 196.143 100.397 195.695 99.9969 195.162C99.5969 194.629 99.3048 194.023 99.1375 193.376C99.0266 192.957 98.9704 192.523 98.9703 192.088C98.9719 190.965 99.3425 189.872 100.024 188.982C100.706 188.093 101.66 187.456 102.739 187.17L127.768 180.565C128.862 180.278 130.02 180.366 131.059 180.815C131.761 181.124 132.384 181.588 132.881 182.175C133.378 182.761 133.735 183.454 133.926 184.201Z" fill="#CCEFF6"/>
<path d="M131.439 320.744L121.698 322.595L123.764 333.639L133.506 331.788L131.439 320.744Z" fill="#CCEFF6"/>
<path d="M131.443 190.196C131.66 191.04 131.771 191.908 131.772 192.78C131.768 195.027 131.027 197.212 129.664 198.99C128.3 200.769 126.391 202.042 124.234 202.612L115.788 204.836C114.505 205.177 113.169 205.259 111.856 205.077C110.542 204.896 109.277 204.456 108.132 203.78C106.987 203.106 105.986 202.21 105.185 201.146C104.385 200.08 103.8 198.867 103.466 197.573L131.443 190.196Z" fill="#CCEFF6"/>
<path d="M114.583 230.694L131.435 320.736L121.697 322.589L104.837 232.546L114.583 230.694Z" fill="#F7CEDC"/>
<path d="M131.356 174.278C131.462 174.698 131.517 175.131 131.517 175.568C131.518 176.693 131.148 177.786 130.466 178.677C129.784 179.568 128.828 180.205 127.748 180.491L102.719 187.096C101.957 187.3 101.158 187.319 100.387 187.151C99.6158 186.984 98.8952 186.636 98.2836 186.133C97.697 185.655 97.2233 185.05 96.8974 184.364C96.5712 183.677 96.4006 182.928 96.3982 182.167C96.3998 181.043 96.7702 179.95 97.4521 179.061C98.1337 178.172 99.0884 177.534 100.167 177.249L101.204 176.977L102.483 176.639L122.134 171.456L123.784 171.022L125.196 170.65C126.49 170.31 127.865 170.499 129.02 171.18C130.175 171.86 131.015 172.974 131.356 174.278Z" fill="#CCEFF6"/>
<path d="M122.107 171.382L122.127 171.456L102.476 176.639L102.456 176.571L82.6479 100.358C87.279 106.684 90.9264 104.461 92.8019 100.173C96.4972 102.914 100.859 102.954 102.299 95.1694L122.107 171.382Z" fill="#FAE173"/>
<path d="M89.7079 87.1178C94.7232 85.7956 95.2149 94.6801 92.8038 100.174C88.0136 96.6203 84.3581 88.5284 89.7079 87.1178Z" fill="#F7CEDC"/>
<path d="M80.0918 262.537C81.3023 269.012 79.9114 275.707 76.2249 281.15C72.5384 286.592 66.858 290.336 60.4327 291.559L59.1546 284.715C62.4628 284.087 65.5254 282.524 67.9849 280.208C70.4445 277.892 72.1998 274.917 73.0458 271.635C73.8918 268.351 73.7936 264.891 72.7628 261.664C71.7321 258.434 69.811 255.566 67.224 253.395L71.867 248.246C76.154 251.919 79.058 256.964 80.0918 262.537Z" fill="#CCEFF6"/>
<path d="M71.867 248.246L67.2241 253.395C64.2858 250.922 60.6321 249.472 56.8089 249.264C52.9856 249.055 49.1981 250.098 46.0122 252.238C42.8262 254.379 40.4127 257.5 39.1324 261.137C37.8519 264.773 37.7734 268.729 38.9083 272.415L38.7988 272.449L32.0971 273.725C31.914 273.073 31.7667 272.415 31.6392 271.744C30.6918 266.691 31.3237 261.466 33.448 256.79C35.5722 252.115 39.0842 248.219 43.499 245.639C47.9139 243.06 53.0141 241.927 58.0959 242.392C63.1778 242.859 67.9909 244.903 71.8711 248.243L71.867 248.246Z" fill="#F7CEDC"/>
<path d="M65.7762 333.223L67.8429 344.258L49.3825 347.772L47.3158 336.728L65.7762 333.223Z" fill="#006B99"/>
<path d="M62.7006 316.768L64.7673 327.804L46.2989 331.317L44.2343 320.276L62.7006 316.768Z" fill="#006B99"/>
<path d="M61.8602 204.461C62.0395 205.427 61.9305 206.426 61.5469 207.331C61.1632 208.235 60.5223 209.003 59.7048 209.541C58.8875 210.079 57.9303 210.36 56.9544 210.35C55.9784 210.339 55.0274 210.037 54.2215 209.483C53.4156 208.928 52.791 208.145 52.4264 207.233C52.0618 206.32 51.9738 205.32 52.1733 204.357C52.3728 203.393 52.8511 202.512 53.5476 201.824C54.244 201.135 55.1276 200.669 56.0864 200.485C56.7246 200.365 57.3802 200.371 58.0158 200.504C58.6514 200.639 59.2546 200.897 59.7909 201.267C60.3271 201.636 60.7858 202.108 61.141 202.655C61.4961 203.204 61.7405 203.817 61.8602 204.461Z" fill="#F7CEDC"/>
<path d="M59.6183 300.316L61.685 311.349L43.2165 314.862L41.152 303.821L59.6183 300.316Z" fill="#006B99"/>
<path d="M59.1545 284.715L60.4327 291.559C54.3502 292.715 48.0591 291.522 42.8089 288.219C37.5586 284.916 33.7333 279.742 32.093 273.728L38.7947 272.452L38.9041 272.418C40.192 276.615 42.9679 280.19 46.7025 282.458C50.4373 284.726 54.8696 285.529 59.1545 284.715Z" fill="#006B99"/>
<path d="M41.1838 208.387C41.3647 209.353 41.257 210.353 40.8745 211.259C40.4922 212.164 39.8519 212.934 39.0349 213.472C38.218 214.011 37.2611 214.294 36.2847 214.284C35.3085 214.275 34.3569 213.975 33.5504 213.421C32.7437 212.865 32.118 212.084 31.7527 211.17C31.3874 210.259 31.2986 209.257 31.4977 208.294C31.6967 207.331 32.1745 206.45 32.8709 205.759C33.5672 205.069 34.4508 204.604 35.41 204.421C36.0475 204.299 36.7027 204.303 37.3379 204.438C37.9732 204.572 38.5762 204.83 39.1125 205.198C39.6486 205.567 40.1076 206.037 40.4629 206.584C40.8183 207.132 41.0632 207.745 41.1838 208.387Z" fill="#F7CEDC"/>
<path d="M20.5094 212.321C20.6887 213.288 20.5795 214.286 20.1959 215.191C19.8123 216.095 19.1713 216.865 18.3538 217.403C17.5365 217.939 16.5794 218.222 15.6034 218.211C14.6275 218.201 13.6765 217.899 12.8706 217.344C12.0647 216.79 11.44 216.007 11.0754 215.093C10.7109 214.182 10.6228 213.18 10.8224 212.219C11.0219 211.255 11.5001 210.373 12.1966 209.684C12.8931 208.995 13.7766 208.53 14.7355 208.347C15.3736 208.225 16.0294 208.23 16.6653 208.365C17.3011 208.498 17.9044 208.758 18.4408 209.127C18.9772 209.496 19.4359 209.968 19.791 210.515C20.1458 211.064 20.39 211.678 20.5094 212.321Z" fill="#F7CEDC"/>
<path d="M123.778 171.022C126.246 170.342 128.362 168.738 129.694 166.538C131.026 164.337 131.474 161.706 130.946 159.185L130.737 158.165C126.809 138.795 128.86 118.677 136.612 100.516C140.417 91.3846 141.611 81.3622 140.058 71.5827C138.505 61.803 134.268 52.6564 127.826 45.1772C121.383 37.698 112.993 32.1848 103.603 29.261C94.2129 26.3372 84.1987 26.1197 74.6926 28.6329C65.1865 31.1459 56.5678 36.2896 49.8115 43.482C43.0551 50.6743 38.4305 59.6285 36.4609 69.3316C34.4912 79.0346 35.2552 89.0995 38.6661 98.3881C42.0771 107.676 47.9991 115.818 55.7622 121.891C71.5398 134.173 83.2059 151.031 89.1909 170.196C89.83 172.247 91.1011 174.04 92.8194 175.315C94.5378 176.587 96.6142 177.278 98.7476 177.282C99.5712 177.281 100.391 177.178 101.191 176.978" stroke="#1F2223" stroke-width="2" stroke-linecap="round" stroke-linejoin="round"/>
<path d="M98.2782 186.138C97.6915 185.658 97.2179 185.054 96.8917 184.367C96.5658 183.682 96.3951 182.931 96.3927 182.17C96.3943 181.046 96.7648 179.955 97.4466 179.066C98.1283 178.176 99.0829 177.539 100.162 177.253L101.199 176.982L102.477 176.643L122.128 171.46L123.779 171.027L125.19 170.653C125.832 170.483 126.501 170.441 127.158 170.533C127.815 170.623 128.449 170.842 129.022 171.18C129.595 171.515 130.097 171.963 130.498 172.496C130.9 173.027 131.194 173.634 131.362 174.281C131.469 174.703 131.523 175.136 131.524 175.571C131.524 176.696 131.154 177.79 130.472 178.68C129.79 179.571 128.835 180.21 127.755 180.496L102.72 187.096C101.958 187.3 101.158 187.319 100.387 187.151C99.6163 186.984 98.8956 186.636 98.2841 186.133" stroke="#1F2223" stroke-width="2" stroke-linecap="round" stroke-linejoin="round"/>
<path d="M102.302 95.1694L122.108 171.382" stroke="#1F2223" stroke-width="2" stroke-linecap="round" stroke-linejoin="round"/>
<path d="M92.804 100.173C96.4993 102.914 100.861 102.954 102.301 95.1694" stroke="#1F2223" stroke-width="2" stroke-linecap="round" stroke-linejoin="round"/>
<path d="M92.8038 100.174C95.2149 94.6801 94.7232 85.7956 89.7079 87.1178C84.3581 88.5284 88.0136 96.6203 92.8038 100.174Z" stroke="#1F2223" stroke-width="2" stroke-linecap="round" stroke-linejoin="round"/>
<path d="M102.456 176.57L82.6479 100.358C87.279 106.684 90.9264 104.461 92.8019 100.173" stroke="#1F2223" stroke-width="2" stroke-linecap="round" stroke-linejoin="round"/>
<path d="M131.059 180.815C132.022 181.238 132.83 181.952 133.371 182.859C133.913 183.766 134.16 184.819 134.079 185.875C133.999 186.93 133.594 187.933 132.922 188.745C132.249 189.557 131.342 190.138 130.326 190.406L105.296 197.011C104.654 197.182 103.987 197.222 103.33 197.13C102.673 197.039 102.041 196.817 101.469 196.48C100.897 196.143 100.397 195.695 99.9969 195.162C99.5969 194.629 99.3048 194.023 99.1375 193.376C99.0266 192.957 98.9704 192.523 98.9703 192.088C98.9719 190.965 99.3425 189.872 100.024 188.982C100.706 188.093 101.66 187.456 102.739 187.17L127.768 180.565C128.862 180.278 130.02 180.366 131.059 180.815Z" stroke="#1F2223" stroke-width="2" stroke-linecap="round" stroke-linejoin="round"/>
<path d="M124.234 202.613L115.788 204.84C114.505 205.178 113.169 205.26 111.856 205.079C110.542 204.897 109.277 204.458 108.132 203.783C106.987 203.108 105.986 202.212 105.185 201.148C104.385 200.082 103.8 198.868 103.466 197.576L131.443 190.196C131.66 191.04 131.771 191.908 131.772 192.78C131.769 195.029 131.028 197.212 129.664 198.99C128.301 200.771 126.391 202.043 124.234 202.613Z" stroke="#1F2223" stroke-width="2" stroke-linecap="round" stroke-linejoin="round"/>
<path d="M351.633 179.156C364.24 186.571 373.498 198.633 377.453 212.795C381.406 226.957 379.75 242.114 372.829 255.068C365.909 268.023 354.268 277.763 340.359 282.235C326.451 286.707 311.364 285.561 298.278 279.038C285.192 272.516 275.13 261.127 270.215 247.273C265.301 233.421 265.915 218.185 271.931 204.78C277.948 191.376 288.895 180.849 302.464 175.42C316.033 169.992 331.164 170.085 344.665 175.682C347.065 176.672 349.394 177.83 351.633 179.149" stroke="#1F2223" stroke-width="2" stroke-linecap="round" stroke-linejoin="round"/>
<path d="M130.77 179.961L130.898 179.936L169.797 172.542" stroke="#1F2223" stroke-width="2" stroke-linecap="round" stroke-linejoin="round"/>
<path d="M231.487 212.538L253.298 329.086L32.766 371.014L1.60504 204.514L98.2774 186.133H98.2835" stroke="#1F2223" stroke-width="2" stroke-linecap="round" stroke-linejoin="round"/>
<path d="M29.3336 224.936L160.496 199.999" stroke="#1F2223" stroke-width="2" stroke-linecap="round" stroke-linejoin="round"/>
<path d="M20.5094 212.321C20.6887 213.288 20.5795 214.286 20.1959 215.191C19.8123 216.095 19.1713 216.865 18.3538 217.403C17.5365 217.939 16.5794 218.222 15.6034 218.211C14.6275 218.201 13.6765 217.899 12.8706 217.344C12.0647 216.79 11.44 216.007 11.0754 215.093C10.7109 214.182 10.6228 213.18 10.8224 212.219C11.0219 211.255 11.5001 210.373 12.1966 209.684C12.8931 208.995 13.7766 208.53 14.7355 208.347C15.3736 208.225 16.0294 208.23 16.6653 208.365C17.3011 208.498 17.9044 208.758 18.4408 209.127C18.9772 209.496 19.4359 209.968 19.791 210.515C20.1458 211.064 20.39 211.678 20.5094 212.321Z" stroke="#1F2223" stroke-width="2" stroke-linecap="round" stroke-linejoin="round"/>
<path d="M41.1838 208.387C41.3647 209.353 41.257 210.353 40.8745 211.259C40.4922 212.164 39.8519 212.934 39.0349 213.472C38.218 214.011 37.2611 214.294 36.2847 214.284C35.3085 214.275 34.3569 213.975 33.5504 213.421C32.7437 212.865 32.118 212.084 31.7527 211.17C31.3874 210.259 31.2986 209.257 31.4977 208.294C31.6967 207.331 32.1745 206.45 32.8709 205.759C33.5672 205.069 34.4508 204.604 35.41 204.421C36.0475 204.299 36.7027 204.303 37.3379 204.438C37.9732 204.572 38.5762 204.83 39.1125 205.198C39.6486 205.567 40.1076 206.037 40.4629 206.584C40.8183 207.132 41.0632 207.745 41.1838 208.387Z" stroke="#1F2223" stroke-width="2" stroke-linecap="round" stroke-linejoin="round"/>
<path d="M61.8602 204.461C62.0395 205.427 61.9305 206.426 61.5469 207.331C61.1632 208.235 60.5223 209.003 59.7048 209.541C58.8875 210.079 57.9303 210.36 56.9544 210.35C55.9784 210.339 55.0274 210.037 54.2215 209.483C53.4156 208.928 52.791 208.145 52.4264 207.233C52.0618 206.32 51.9738 205.32 52.1733 204.357C52.3728 203.393 52.8511 202.512 53.5476 201.824C54.244 201.135 55.1276 200.669 56.0864 200.485C56.7246 200.365 57.3802 200.371 58.0158 200.504C58.6514 200.639 59.2546 200.897 59.7909 201.267C60.3271 201.636 60.7858 202.108 61.141 202.655C61.4961 203.204 61.7405 203.817 61.8602 204.461Z" stroke="#1F2223" stroke-width="2" stroke-linecap="round" stroke-linejoin="round"/>
<path d="M266.907 219.36L231.487 212.538L164.655 199.665L169.799 172.541L170.465 169.056L191.018 60.6724L367.651 94.6995L351.633 179.149V179.154" stroke="#1F2223" stroke-width="2" stroke-linecap="round" stroke-linejoin="round"/>
<path d="M206.977 83.5159L347.508 110.585" stroke="#1F2223" stroke-width="2" stroke-linecap="round" stroke-linejoin="round"/>
<path d="M203.34 72.5724C203.187 73.3796 202.799 74.123 202.227 74.7085C201.654 75.2939 200.924 75.6952 200.125 75.8617C199.325 76.0281 198.497 75.9522 197.741 75.6435C196.985 75.3349 196.337 74.8073 195.879 74.1275C195.42 73.4477 195.173 72.6463 195.167 71.8246C195.16 71.0027 195.396 70.1976 195.844 69.5108C196.292 68.8239 196.931 68.2863 197.682 67.966C198.433 67.6456 199.261 67.5568 200.062 67.7109C200.595 67.8131 201.101 68.0201 201.553 68.3197C202.006 68.6194 202.396 69.0061 202.701 69.4576C203.004 69.909 203.218 70.4165 203.327 70.9509C203.437 71.4854 203.441 72.0365 203.34 72.5724Z" stroke="#1F2223" stroke-width="2" stroke-linecap="round" stroke-linejoin="round"/>
<path d="M220.599 75.8933C220.445 76.7009 220.058 77.4447 219.485 78.0304C218.913 78.6163 218.181 79.0179 217.382 79.1845C216.583 79.3511 215.753 79.2752 214.997 78.9665C214.241 78.6577 213.593 78.1299 213.134 77.4498C212.675 76.7697 212.427 75.9679 212.421 75.1458C212.414 74.3236 212.65 73.518 213.098 72.8308C213.546 72.1437 214.186 71.6058 214.938 71.2851C215.689 70.9645 216.517 70.8756 217.318 71.0297C217.851 71.1313 218.358 71.3377 218.812 71.6374C219.265 71.9369 219.655 72.3238 219.96 72.7756C220.265 73.2275 220.478 73.7353 220.587 74.2703C220.697 74.8053 220.7 75.3569 220.599 75.8933Z" stroke="#1F2223" stroke-width="2" stroke-linecap="round" stroke-linejoin="round"/>
<path d="M237.859 79.2244C237.705 80.0315 237.317 80.774 236.744 81.3586C236.171 81.9432 235.439 82.3435 234.639 82.5088C233.84 82.6742 233.01 82.5971 232.256 82.2875C231.5 81.9779 230.852 81.4494 230.394 80.7692C229.937 80.0889 229.69 79.2873 229.685 78.4653C229.678 77.6435 229.914 76.8385 230.362 76.1518C230.811 75.4651 231.45 74.9277 232.201 74.6075C232.953 74.2874 233.782 74.1987 234.583 74.3528C235.657 74.5617 236.607 75.1921 237.222 76.1054C237.835 77.0187 238.065 78.1406 237.859 79.2244Z" stroke="#1F2223" stroke-width="2" stroke-linecap="round" stroke-linejoin="round"/>
<path d="M343.786 162.273C345.293 164.533 345.643 168.514 344.673 175.682" stroke="#1F2223" stroke-width="2" stroke-linecap="round" stroke-linejoin="round"/>
<path d="M329.778 171.382C331.738 165.888 333.683 161.31 336.649 159.967" stroke="#1F2223" stroke-width="2" stroke-linecap="round" stroke-linejoin="round"/>
<path d="M294.655 138.962C299.09 145.331 294.057 164.375 294.877 178.891" stroke="#1F2223" stroke-width="2" stroke-linecap="round" stroke-linejoin="round"/>
<path d="M259.349 111.149C269.129 123.336 249.592 177.289 262.774 179.44C275.865 181.568 277.509 143.683 287.563 137.606" stroke="#1F2223" stroke-width="2" stroke-linecap="round" stroke-linejoin="round"/>
<path d="M208.307 113.793C218.363 126.185 195.635 188.649 216.162 192.116C237.068 195.65 237.864 116.709 252.37 109.317" stroke="#1F2223" stroke-width="2" stroke-linecap="round" stroke-linejoin="round"/>
<path d="M170.465 169.056C178.763 170.167 186.637 118.588 200.877 112.294" stroke="#1F2223" stroke-width="2" stroke-linecap="round" stroke-linejoin="round"/>
<path d="M71.8672 248.246C74.8009 250.769 77.1064 253.951 78.5981 257.535C80.0897 261.119 80.7261 265.007 80.4559 268.883C80.1858 272.761 79.0169 276.521 77.0428 279.859C75.0688 283.198 72.3449 286.025 69.09 288.11C65.8351 290.195 62.1403 291.482 58.3023 291.866C54.4644 292.251 50.5904 291.721 46.9921 290.323C43.3936 288.924 40.171 286.694 37.5835 283.811C34.9958 280.93 33.1154 277.476 32.0931 273.728C31.91 273.076 31.7627 272.418 31.6352 271.749C30.6878 266.694 31.3198 261.469 33.4441 256.793C35.5684 252.118 39.0802 248.222 43.495 245.644C47.9099 243.065 53.0102 241.93 58.0921 242.397C63.174 242.862 67.987 244.906 71.8672 248.246Z" stroke="#1F2223" stroke-width="2" stroke-linecap="round" stroke-linejoin="round"/>
<path d="M67.2235 253.395C70.3241 255.997 72.4527 259.585 73.2589 263.569C74.065 267.554 73.5005 271.696 71.6582 275.314C69.8161 278.93 66.8062 281.808 63.1244 283.471C59.4426 285.134 55.3085 285.484 51.4031 284.461C47.4977 283.441 44.0542 281.108 41.6396 277.851C39.2251 274.593 37.9836 270.604 38.1197 266.54C38.2557 262.477 39.7614 258.582 42.3884 255.495C45.0153 252.408 48.6071 250.317 52.5719 249.562C55.1431 249.066 57.7919 249.153 60.3261 249.816C62.8602 250.479 65.2162 251.702 67.2235 253.395Z" stroke="#1F2223" stroke-width="2" stroke-linecap="round" stroke-linejoin="round"/>
<path d="M59.1546 284.715L60.4327 291.559" stroke="#1F2223" stroke-width="2" stroke-linecap="round" stroke-linejoin="round"/>
<path d="M67.2237 253.395L71.8667 248.246" stroke="#1F2223" stroke-width="2" stroke-linecap="round" stroke-linejoin="round"/>
<path d="M38.7948 272.452L32.0931 273.728L32.0114 273.742" stroke="#1F2223" stroke-width="2" stroke-linecap="round" stroke-linejoin="round"/>
<path d="M216.202 316.056L236.521 312.192L218.006 213.276" stroke="#1F2223" stroke-width="2" stroke-linecap="round" stroke-linejoin="round"/>
<path d="M188.634 321.293L206.458 317.908" stroke="#1F2223" stroke-width="2" stroke-linecap="round" stroke-linejoin="round"/>
<path d="M178.896 323.144L188.634 321.298" stroke="#1F2223" stroke-width="2" stroke-linecap="round" stroke-linejoin="round"/>
<path d="M161.069 326.536L178.896 323.15" stroke="#1F2223" stroke-width="2" stroke-linecap="round" stroke-linejoin="round"/>
<path d="M133.502 331.778L151.329 328.388" stroke="#1F2223" stroke-width="2" stroke-linecap="round" stroke-linejoin="round"/>
<path d="M105.324 337.136L123.764 333.63" stroke="#1F2223" stroke-width="2" stroke-linecap="round" stroke-linejoin="round"/>
<path d="M61.685 311.349L43.2165 314.862L41.152 303.821L59.6183 300.316L61.685 311.349Z" stroke="#1F2223" stroke-width="2" stroke-linecap="round" stroke-linejoin="round"/>
<path d="M64.7673 327.804L46.2989 331.317L44.2343 320.276L62.7006 316.768L64.7673 327.804Z" stroke="#1F2223" stroke-width="2" stroke-linecap="round" stroke-linejoin="round"/>
<path d="M67.8429 344.258L49.3825 347.772L47.3158 336.728L65.7762 333.223L67.8429 344.258Z" stroke="#1F2223" stroke-width="2" stroke-linecap="round" stroke-linejoin="round"/>
<path d="M133.501 331.778L123.763 333.631L121.697 322.589L104.837 232.546L114.583 230.694L131.435 320.736L133.501 331.778Z" stroke="#1F2223" stroke-width="2" stroke-linecap="round" stroke-linejoin="round"/>
<path d="M161.069 326.536L151.329 328.388L142.069 278.932L132.405 227.304L142.151 225.451L151.815 277.079L161.069 326.536Z" stroke="#1F2223" stroke-width="2" stroke-linecap="round" stroke-linejoin="round"/>
<path d="M188.634 321.298L178.896 323.151V323.144L173.747 295.654L159.972 222.066L169.711 220.214L183.488 293.805L188.634 321.293V321.298Z" stroke="#1F2223" stroke-width="2" stroke-linecap="round" stroke-linejoin="round"/>
<path d="M216.202 316.056L206.458 317.908L194.196 252.37L187.538 216.824L197.277 214.971L203.933 250.517L216.202 316.056Z" stroke="#1F2223" stroke-width="2" stroke-linecap="round" stroke-linejoin="round"/>
<path d="M121.698 322.589L131.436 320.738" stroke="#1F2223" stroke-width="2" stroke-linecap="round" stroke-linejoin="round"/>
<path d="M142.069 278.93L151.807 277.079" stroke="#1F2223" stroke-width="2" stroke-linecap="round" stroke-linejoin="round"/>
<path d="M173.747 295.654L183.488 293.805" stroke="#1F2223" stroke-width="2" stroke-linecap="round" stroke-linejoin="round"/>
<path d="M194.196 252.37L203.933 250.517" stroke="#1F2223" stroke-width="2" stroke-linecap="round" stroke-linejoin="round"/>
<path d="M363.235 188.168L323.023 228.694L282.81 269.217" stroke="#1F2223" stroke-width="2" stroke-linecap="round" stroke-linejoin="round"/>
<path d="M282.81 188.168L323.023 228.694" stroke="#1F2223" stroke-width="2" stroke-linecap="round" stroke-linejoin="round"/>
<path d="M71.4094 19.7836L66.5434 1.60522" stroke="#1F2223" stroke-width="2" stroke-linecap="round" stroke-linejoin="round"/>
<path d="M92.4952 19.7836L94.4603 3.48535" stroke="#1F2223" stroke-width="2" stroke-linecap="round" stroke-linejoin="round"/>
<path d="M52.7934 32.2895L42.0799 19.7834" stroke="#1F2223" stroke-width="2" stroke-linecap="round" stroke-linejoin="round"/>
</svg>
