<svg width="481" height="479" viewBox="0 0 481 479" fill="none" xmlns="http://www.w3.org/2000/svg">
<path d="M371.353 163.284H137.669V154.053C137.669 151.351 138.743 148.759 140.655 146.848C142.566 144.937 145.158 143.863 147.861 143.863H368.239C367.863 145.694 367.676 147.557 367.674 149.426C367.674 149.505 367.674 149.575 367.674 149.651H174.211V157.416H368.661L368.848 157.363C369.464 159.423 370.303 161.408 371.353 163.284Z" fill="#CCEFF6"/>
<path d="M264.803 314.621C266.296 314.621 267.756 315.063 268.998 315.893C270.24 316.722 271.209 317.901 271.78 319.28C272.351 320.66 272.503 322.177 272.212 323.643C271.92 325.107 271.2 326.452 270.144 327.508C269.088 328.563 267.743 329.284 266.279 329.575C264.813 329.866 263.295 329.715 261.915 329.144C260.535 328.573 259.355 327.605 258.527 326.362C257.697 325.12 257.255 323.66 257.255 322.168C257.256 320.167 258.052 318.248 259.468 316.834C260.882 315.418 262.8 314.623 264.803 314.621Z" fill="#F7CEDC"/>
<path d="M400.999 201.153V288.092C399.207 288.862 397.465 289.741 395.783 290.726L391.846 289.395L391.948 289.09V184.632L400.999 201.153Z" fill="#F7CEDC"/>
<path d="M400.999 183.284V201.153L391.946 184.627V180.532C394.874 181.723 397.904 182.644 400.999 183.284Z" fill="#006B99"/>
<path d="M383.499 335.932H366.99L374.701 308.405H379.772C378.442 311.706 377.758 315.23 377.754 318.788C377.802 324.967 379.814 330.972 383.499 335.932Z" fill="#006B99"/>
<path d="M374.707 308.405L366.995 335.932H142.366C138.719 335.932 135.222 334.484 132.643 331.905C130.065 329.328 128.616 325.831 128.616 322.185V256.529L137.669 244.97V298.216C137.669 300.917 138.743 303.51 140.655 305.42C142.566 307.332 145.158 308.405 147.861 308.405H374.707ZM272.367 322.168C272.369 320.675 271.926 319.215 271.096 317.972C270.266 316.73 269.088 315.763 267.708 315.19C266.328 314.619 264.811 314.467 263.345 314.759C261.879 315.05 260.533 315.768 259.477 316.824C258.42 317.878 257.701 319.223 257.408 320.689C257.117 322.152 257.264 323.672 257.835 325.051C258.406 326.431 259.374 327.611 260.616 328.441C261.856 329.272 263.316 329.715 264.811 329.717C266.813 329.717 268.733 328.92 270.148 327.506C271.564 326.09 272.359 324.17 272.361 322.168H272.367Z" fill="#F7CEDC"/>
<path d="M371.453 188.84C371.985 188.827 372.514 188.921 373.009 189.115C373.505 189.31 373.955 189.601 374.337 189.973C374.718 190.344 375.019 190.788 375.226 191.278C375.433 191.769 375.54 192.296 375.54 192.826C375.54 193.359 375.433 193.886 375.226 194.376C375.019 194.865 374.718 195.309 374.337 195.681C373.955 196.053 373.505 196.344 373.009 196.538C372.514 196.733 371.985 196.827 371.453 196.813H279.536C278.748 196.815 277.976 196.582 277.319 196.145C276.663 195.706 276.15 195.083 275.849 194.355C275.546 193.625 275.467 192.824 275.623 192.05C275.778 191.276 276.157 190.566 276.717 190.009C277.085 189.637 277.525 189.342 278.008 189.141C278.493 188.94 279.013 188.838 279.536 188.84H371.453Z" fill="#CCEFF6"/>
<path d="M371.455 205.888C372.512 205.888 373.526 206.309 374.274 207.056C375.023 207.804 375.443 208.819 375.443 209.877C375.443 210.934 375.023 211.948 374.274 212.695C373.526 213.444 372.512 213.864 371.455 213.864H233.032C231.974 213.862 230.96 213.44 230.211 212.691C229.464 211.944 229.042 210.929 229.042 209.871C229.046 208.815 229.468 207.804 230.215 207.056C230.964 206.311 231.976 205.891 233.032 205.888H371.455Z" fill="#006B99"/>
<path d="M371.453 222.938C371.985 222.925 372.514 223.019 373.009 223.214C373.505 223.408 373.955 223.699 374.337 224.07C374.716 224.442 375.019 224.887 375.226 225.375C375.433 225.866 375.538 226.393 375.538 226.925C375.538 227.456 375.433 227.983 375.226 228.473C375.019 228.964 374.716 229.407 374.337 229.778C373.955 230.15 373.505 230.441 373.009 230.637C372.514 230.83 371.985 230.924 371.453 230.911H326.041C324.982 230.911 323.968 230.491 323.219 229.742C322.471 228.995 322.051 227.979 322.05 226.922C322.051 225.864 322.473 224.85 323.22 224.105C323.97 223.358 324.983 222.938 326.041 222.938H371.453Z" fill="#CCEFF6"/>
<path d="M371.455 239.979C372.512 239.979 373.526 240.399 374.274 241.146C375.023 241.895 375.443 242.909 375.443 243.966C375.443 245.024 375.023 246.037 374.274 246.787C373.526 247.534 372.512 247.953 371.455 247.953H225.282C224.225 247.953 223.209 247.532 222.462 246.783C221.712 246.035 221.291 245.02 221.291 243.962C221.294 242.905 221.716 241.893 222.465 241.146C223.213 240.401 224.226 239.981 225.282 239.979H371.455Z" fill="#006B99"/>
<path d="M371.453 257.035C372.493 257.062 373.484 257.493 374.21 258.237C374.937 258.982 375.345 259.982 375.345 261.022C375.345 262.063 374.937 263.063 374.21 263.806C373.484 264.552 372.493 264.983 371.453 265.01H295.039C293.981 265.008 292.967 264.588 292.218 263.839C291.469 263.092 291.047 262.076 291.047 261.019C291.049 259.961 291.473 258.949 292.22 258.202C292.969 257.457 293.983 257.037 295.039 257.035H371.453Z" fill="#CCEFF6"/>
<path d="M371.455 274.084C371.985 274.07 372.516 274.164 373.011 274.358C373.505 274.553 373.957 274.844 374.337 275.216C374.718 275.588 375.021 276.03 375.228 276.521C375.435 277.011 375.54 277.538 375.54 278.069C375.54 278.602 375.435 279.129 375.228 279.619C375.021 280.108 374.718 280.552 374.337 280.924C373.957 281.296 373.505 281.587 373.011 281.78C372.516 281.976 371.985 282.07 371.455 282.056H349.294C348.236 282.056 347.221 281.635 346.473 280.887C345.726 280.138 345.304 279.125 345.304 278.065C345.306 277.01 345.728 275.998 346.477 275.251C347.224 274.503 348.238 274.084 349.294 274.084H371.455Z" fill="#006B99"/>
<path d="M371.455 291.13C372.512 291.13 373.526 291.552 374.274 292.299C375.023 293.046 375.443 294.062 375.443 295.12C375.443 296.175 375.023 297.191 374.274 297.938C373.526 298.685 372.512 299.107 371.455 299.107H248.535C247.477 299.105 246.462 298.683 245.712 297.936C244.965 297.187 244.543 296.171 244.542 295.114C244.547 294.058 244.969 293.045 245.718 292.299C246.466 291.552 247.479 291.132 248.535 291.13H371.455Z" fill="#CCEFF6"/>
<path d="M371.763 171.822L367.896 179.766H248.535C247.477 179.766 246.464 179.346 245.714 178.598C244.967 177.85 244.547 176.836 244.547 175.778C244.547 174.721 244.967 173.706 245.714 172.959C246.464 172.211 247.477 171.791 248.535 171.791H371.455C371.562 171.791 371.656 171.815 371.763 171.822Z" fill="#006B99"/>
<path d="M142.366 137.259H370.462C369.456 139.362 368.71 141.579 368.239 143.862H147.861C145.158 143.863 142.566 144.937 140.655 146.848C138.743 148.759 137.669 151.35 137.669 154.053V186.584C134.86 184.504 131.823 182.751 128.616 181.361V151.006C128.616 149.201 128.972 147.414 129.663 145.746C130.354 144.078 131.367 142.562 132.643 141.286C133.92 140.009 135.436 138.997 137.104 138.306C138.772 137.615 140.56 137.259 142.366 137.259Z" fill="#F7CEDC"/>
<path d="M368.85 157.363L368.663 157.416H174.211V149.651H367.683C367.699 152.265 368.092 154.862 368.85 157.363Z" fill="#006B99"/>
<path d="M327.277 274.084C328.318 274.109 329.309 274.54 330.035 275.285C330.761 276.03 331.169 277.029 331.169 278.069C331.169 279.111 330.761 280.11 330.035 280.855C329.309 281.6 328.318 282.031 327.277 282.056H173.353C172.295 282.056 171.28 281.635 170.532 280.887C169.784 280.138 169.363 279.125 169.363 278.067C169.366 277.009 169.787 275.998 170.535 275.251C171.283 274.505 172.297 274.084 173.353 274.084H327.277Z" fill="#CCEFF6"/>
<path d="M304.023 222.938C305.063 222.963 306.054 223.394 306.78 224.139C307.507 224.885 307.915 225.883 307.915 226.925C307.915 227.966 307.507 228.964 306.78 229.709C306.054 230.455 305.063 230.886 304.023 230.911H173.353C172.295 230.911 171.28 230.489 170.532 229.742C169.784 228.993 169.363 227.979 169.363 226.921C169.365 225.864 169.786 224.85 170.534 224.105C171.282 223.358 172.296 222.938 173.353 222.938H304.023Z" fill="#006B99"/>
<path d="M294.497 355.7L297.77 370.121H293.148H238.444H231.848L239.599 335.932L294.497 355.7Z" fill="#F7CEDC"/>
<path d="M290.016 335.932L294.497 355.7L239.597 335.932H290.016Z" fill="#006B99"/>
<path d="M273.02 257.035C274.061 257.062 275.05 257.493 275.776 258.237C276.504 258.982 276.91 259.982 276.91 261.022C276.91 262.063 276.504 263.063 275.776 263.806C275.05 264.552 274.061 264.983 273.02 265.01H173.353C172.295 265.008 171.28 264.588 170.532 263.839C169.784 263.092 169.363 262.076 169.363 261.019C169.365 259.961 169.786 258.949 170.534 258.202C171.282 257.455 172.296 257.035 173.353 257.035H273.02Z" fill="#006B99"/>
<path d="M257.519 188.84C258.05 188.827 258.579 188.921 259.075 189.115C259.569 189.31 260.02 189.601 260.401 189.973C260.782 190.344 261.085 190.788 261.292 191.278C261.497 191.769 261.605 192.296 261.605 192.826C261.605 193.359 261.497 193.886 261.292 194.376C261.085 194.865 260.782 195.309 260.401 195.681C260.02 196.053 259.569 196.344 259.075 196.538C258.579 196.733 258.05 196.827 257.519 196.813H173.353C172.821 196.827 172.292 196.733 171.797 196.538C171.302 196.344 170.85 196.053 170.47 195.681C170.089 195.309 169.786 194.865 169.58 194.376C169.373 193.886 169.267 193.359 169.267 192.826C169.267 192.296 169.373 191.769 169.58 191.278C169.786 190.788 170.089 190.344 170.47 189.973C170.85 189.601 171.302 189.31 171.797 189.115C172.292 188.921 172.821 188.827 173.353 188.84H257.519Z" fill="#006B99"/>
<path d="M226.515 171.791C227.572 171.791 228.588 172.211 229.335 172.959C230.083 173.706 230.502 174.721 230.502 175.778C230.502 176.836 230.083 177.85 229.335 178.598C228.588 179.346 227.572 179.766 226.515 179.766H173.353C172.295 179.765 171.28 179.345 170.532 178.597C169.784 177.849 169.363 176.834 169.363 175.776C169.365 174.719 169.787 173.706 170.535 172.959C171.283 172.212 172.296 171.792 173.353 171.791H226.515Z" fill="#CCEFF6"/>
<path d="M226.515 291.13C227.572 291.13 228.588 291.552 229.335 292.299C230.083 293.046 230.502 294.062 230.502 295.12C230.502 296.175 230.083 297.191 229.335 297.938C228.588 298.685 227.572 299.107 226.515 299.107H173.353C172.295 299.105 171.28 298.683 170.532 297.936C169.784 297.187 169.363 296.171 169.363 295.114C169.366 294.058 169.787 293.045 170.535 292.299C171.283 291.552 172.297 291.132 173.353 291.13H226.515Z" fill="#006B99"/>
<path d="M211.013 205.888C212.071 205.888 213.087 206.309 213.834 207.056C214.582 207.804 215.003 208.819 215.003 209.877C215.003 210.934 214.582 211.948 213.834 212.695C213.087 213.444 212.071 213.864 211.013 213.864H173.353C172.295 213.862 171.28 213.44 170.532 212.693C169.784 211.944 169.363 210.929 169.363 209.871C169.366 208.815 169.787 207.802 170.535 207.056C171.283 206.309 172.297 205.889 173.353 205.888H211.013Z" fill="#CCEFF6"/>
<path d="M203.262 239.979C204.32 239.979 205.335 240.399 206.083 241.146C206.83 241.895 207.252 242.909 207.252 243.966C207.252 245.024 206.83 246.037 206.083 246.787C205.335 247.534 204.32 247.953 203.262 247.953H173.353C172.295 247.953 171.28 247.532 170.532 246.783C169.784 246.034 169.363 245.02 169.363 243.962C169.366 242.905 169.787 241.893 170.535 241.146C171.283 240.401 172.297 239.979 173.353 239.979H203.262Z" fill="#CCEFF6"/>
<path d="M151.171 207.114C151.697 207.309 152.156 207.652 152.493 208.101C152.831 208.549 153.034 209.084 153.077 209.643C153.121 210.201 153.004 210.762 152.74 211.256C152.477 211.751 152.077 212.161 151.588 212.437C151.588 212.274 151.588 212.103 151.588 211.933C151.588 211.538 151.588 211.143 151.557 210.747V210.655C151.506 209.467 151.377 208.285 151.171 207.114Z" fill="#006B99"/>
<path d="M150.117 172.806C150.705 172.804 151.28 172.977 151.77 173.302C152.26 173.627 152.642 174.09 152.868 174.633C153.094 175.175 153.155 175.772 153.041 176.349C152.928 176.926 152.645 177.456 152.23 177.872C151.815 178.288 151.286 178.572 150.71 178.688C150.133 178.803 149.535 178.745 148.992 178.52C148.449 178.296 147.984 177.915 147.658 177.427C147.331 176.938 147.156 176.363 147.156 175.776C147.156 174.99 147.468 174.236 148.023 173.679C148.578 173.122 149.331 172.808 150.117 172.806Z" fill="#006B99"/>
<path d="M150.117 189.856C150.704 189.855 151.279 190.028 151.768 190.353C152.257 190.678 152.639 191.141 152.864 191.682C153.09 192.225 153.15 192.822 153.036 193.397C152.922 193.974 152.64 194.503 152.225 194.919C151.811 195.334 151.282 195.618 150.706 195.733C150.13 195.848 149.533 195.79 148.99 195.566C148.447 195.342 147.983 194.961 147.657 194.472C147.331 193.985 147.156 193.411 147.156 192.824C147.156 192.037 147.468 191.284 148.023 190.728C148.578 190.171 149.331 189.858 150.117 189.856Z" fill="#006B99"/>
<path d="M150.117 223.954C150.905 223.954 151.659 224.266 152.216 224.823C152.773 225.379 153.085 226.134 153.085 226.921C153.085 227.707 152.773 228.462 152.216 229.019C151.659 229.575 150.905 229.887 150.117 229.887C149.485 229.874 148.873 229.659 148.369 229.276C147.865 228.895 147.494 228.362 147.31 227.757L146.903 227.5C147.602 226.414 148.231 225.283 148.786 224.116L148.917 224.176C149.164 223.933 149.914 223.954 150.117 223.954Z" fill="#006B99"/>
<path d="M150.117 258.049C150.705 258.047 151.28 258.219 151.77 258.545C152.26 258.871 152.642 259.333 152.868 259.877C153.094 260.419 153.155 261.015 153.041 261.592C152.928 262.168 152.645 262.699 152.23 263.115C151.815 263.532 151.286 263.816 150.71 263.931C150.133 264.046 149.535 263.988 148.992 263.764C148.449 263.538 147.984 263.159 147.658 262.67C147.331 262.182 147.156 261.607 147.156 261.019C147.156 260.233 147.468 259.478 148.023 258.923C148.578 258.365 149.331 258.051 150.117 258.049Z" fill="#006B99"/>
<path d="M150.117 275.099C150.704 275.097 151.279 275.27 151.768 275.596C152.257 275.921 152.639 276.383 152.864 276.925C153.09 277.467 153.15 278.065 153.036 278.64C152.922 279.217 152.64 279.746 152.225 280.161C151.811 280.577 151.282 280.861 150.706 280.976C150.13 281.091 149.533 281.033 148.99 280.809C148.447 280.585 147.983 280.203 147.657 279.715C147.331 279.228 147.156 278.653 147.156 278.067C147.156 277.28 147.468 276.527 148.023 275.971C148.578 275.413 149.331 275.101 150.117 275.099Z" fill="#006B99"/>
<path d="M150.117 292.146C150.705 292.144 151.28 292.316 151.77 292.642C152.26 292.968 152.642 293.432 152.868 293.974C153.094 294.516 153.155 295.114 153.041 295.69C152.927 296.267 152.645 296.798 152.23 297.214C151.814 297.629 151.285 297.913 150.708 298.028C150.132 298.143 149.534 298.085 148.991 297.859C148.447 297.635 147.983 297.254 147.656 296.765C147.33 296.277 147.156 295.702 147.156 295.114C147.156 294.328 147.468 293.575 148.023 293.018C148.578 292.462 149.331 292.148 150.117 292.146Z" fill="#006B99"/>
<path d="M133.568 239.992L137.88 242.031L137.661 242.495V244.97L128.609 256.529V242.495C130.312 241.763 131.968 240.927 133.568 239.992Z" fill="#006B99"/>
<path d="M118.811 245.681L118.895 246.062C114.89 255.144 109.792 264.157 103.821 269.171C101.882 270.798 100.017 272.446 98.2248 274.114C97.5493 264.211 96.8213 254.19 96.1241 246.062C99.559 246.687 103.043 247.001 106.535 246.999C110.662 247.005 114.779 246.562 118.811 245.681Z" fill="#006B99"/>
<path d="M90.7302 291.079C92.2037 287.628 94.4753 284.576 97.3583 282.173C97.799 281.834 98.2398 281.491 98.6901 281.165C105.803 276.163 113.553 272.135 121.734 269.19C121.516 269.654 113.192 287.285 105.206 294.02C103.354 295.576 101.5 296.972 99.7489 298.331C97.9719 299.682 96.291 301.155 94.7185 302.739C92.9827 304.449 91.6096 306.489 90.6816 308.742C89.7535 310.994 89.2893 313.41 89.3169 315.845V316.24H85.9011V315.845C85.9446 311.668 86.3338 307.503 87.0652 303.391C87.762 299.149 88.9936 295.01 90.7302 291.079Z" fill="#CCEFF6"/>
<path d="M100.597 315.845V316.24H96.4432C96.2412 311.699 95.6602 307.185 94.7066 302.74C96.279 301.155 97.96 299.682 99.737 298.331C100.271 307.321 100.597 314.046 100.597 315.845Z" fill="#006B99"/>
<path d="M98.6897 281.158C98.2394 281.491 97.7986 281.834 97.3579 282.173C94.4749 284.576 92.2033 287.628 90.7298 291.079C89.8075 289.642 88.6673 288.048 87.3498 286.273C84.2885 282.135 80.3217 277.098 76.2519 271.501C71.3511 264.939 66.9763 257.999 63.1682 250.749C63.1682 250.749 63.1442 250.711 63.1059 250.642C62.5333 249.502 61.9896 248.371 61.4722 247.223C44.5197 209.84 55.5028 172.566 55.5028 172.566C61.3145 177.867 66.7672 183.547 71.8252 189.571C68.6477 192.382 66.0875 195.819 64.3055 199.668C62.5237 203.518 61.559 207.694 61.4722 211.935C61.4722 228.512 76.2519 242.407 96.1243 246.064C96.8213 254.192 97.5495 264.213 98.225 274.116C98.3808 276.479 98.5437 278.832 98.6897 281.158Z" fill="#CCEFF6"/>
<path d="M85.3986 289.216C85.3986 289.216 86.6707 296.788 87.0754 303.383C86.3441 307.495 85.9547 311.66 85.9112 315.837V316.232H82.5072V315.837C83.7051 307.824 82.4762 298.804 82.5072 294.541C83.3705 292.713 84.3358 290.937 85.3986 289.216Z" fill="#006B99"/>
<path d="M87.3505 286.273C86.6702 287.231 86.0187 288.218 85.3982 289.216C84.3356 290.937 83.3701 292.713 82.507 294.541C79.3654 301.331 77.7139 308.714 77.6635 316.194V316.232H76.2981C76.2155 307.917 75.3566 299.628 73.7325 291.472C74.5159 287.371 74.9302 282.721 75.4309 277.977C75.6561 275.839 75.8956 273.678 76.1902 271.547L76.2525 271.499C80.3224 277.102 84.2892 282.131 87.3505 286.273Z" fill="#CCEFF6"/>
<path d="M76.2977 316.24H70.2613C69.8661 295.704 55.9775 289.218 42.072 277.502C27.6995 265.404 12.7425 233.468 12.7425 233.468C27.6929 238.852 41.8211 246.29 54.7198 255.569C55.1216 255.91 55.5406 256.23 55.975 256.527C66.0357 264.418 71.1596 278.676 73.7323 291.471C75.3568 299.63 76.2157 307.922 76.2977 316.24Z" fill="#CCEFF6"/>
<path d="M76.2525 271.501L76.1902 271.549C75.8957 273.681 75.6561 275.841 75.4309 277.981C74.0512 268.828 66.7187 263.962 55.9777 256.531C55.5586 256.206 55.1465 255.88 54.7202 255.573C44.9779 247.405 41.9334 227.481 41.9334 227.481C53.0865 234.038 62.2705 249.233 63.1064 250.643C63.1447 250.712 63.1687 250.751 63.1687 250.751C66.977 258.001 71.3518 264.941 76.2525 271.501Z" fill="#006B99"/>
<path d="M128.616 242.495C130.316 241.763 131.97 240.927 133.568 239.992L137.879 242.031L158.959 251.95L145.305 229.811C145.878 229.06 146.421 228.293 146.917 227.5C147.617 226.414 148.246 225.281 148.8 224.115C150.563 220.468 151.514 216.485 151.588 212.437C151.588 212.274 151.588 212.103 151.588 211.933C151.588 211.538 151.588 211.143 151.557 210.747" stroke="#006B99" stroke-width="1.54342" stroke-linecap="round" stroke-linejoin="round"/>
<path d="M151.567 210.655C151.513 209.467 151.381 208.285 151.172 207.114C149.466 198.795 144.633 191.447 137.669 186.585C134.86 184.504 131.823 182.752 128.617 181.361C121.646 178.354 114.127 176.824 106.536 176.868C93.7827 176.597 81.3936 181.127 71.826 189.562C68.6485 192.372 66.0883 195.811 64.3063 199.661C62.5245 203.51 61.5598 207.685 61.473 211.927C61.473 228.502 76.2527 242.397 96.1251 246.055C99.5599 246.679 103.044 246.993 106.536 246.992C110.663 246.997 114.78 246.557 118.812 245.673C122.176 244.938 125.46 243.874 128.617 242.499" stroke="#006B99" stroke-width="1.54342" stroke-linecap="round" stroke-linejoin="round"/>
<path d="M371.771 171.822L373.973 167.298C372.995 166.026 372.116 164.684 371.338 163.284C370.291 161.408 369.454 159.422 368.843 157.363C368.086 154.862 367.693 152.265 367.679 149.651C367.679 149.575 367.679 149.505 367.679 149.426C367.678 147.557 367.865 145.693 368.239 143.862C368.709 141.58 369.454 139.363 370.458 137.26C376.813 123.886 393.343 114.354 412.736 114.354C437.616 114.354 457.793 130.053 457.793 149.426C457.793 168.799 437.616 184.494 412.736 184.494C408.793 184.5 404.858 184.093 400.999 183.277C397.904 182.643 394.874 181.724 391.948 180.532C389.8 179.668 387.719 178.647 385.72 177.479L364.64 186.47L367.911 179.764L371.784 171.819" stroke="#006B99" stroke-width="1.54342" stroke-linecap="round" stroke-linejoin="round"/>
<path d="M391.846 289.396L378.367 284.833L384.049 300.912C382.286 303.201 380.845 305.723 379.77 308.405C378.44 311.706 377.756 315.23 377.754 318.788C377.802 324.967 379.816 330.972 383.503 335.932C391.214 346.625 405.933 353.856 422.82 353.856C447.702 353.856 467.877 338.155 467.877 318.788C467.877 299.423 447.702 283.723 422.82 283.723C415.325 283.685 407.903 285.174 401.003 288.101C399.211 288.871 397.469 289.751 395.786 290.736L391.846 289.396Z" stroke="#006B99" stroke-width="1.54342" stroke-linecap="round" stroke-linejoin="round"/>
<path d="M128.616 181.361V151.006C128.616 147.361 130.065 143.864 132.643 141.286C135.222 138.708 138.719 137.259 142.366 137.259H370.462" stroke="#006B99" stroke-width="1.54342" stroke-linecap="round" stroke-linejoin="round"/>
<path d="M239.605 335.932H142.366C138.719 335.932 135.222 334.484 132.643 331.905C130.065 329.328 128.616 325.831 128.616 322.185V242.497" stroke="#006B99" stroke-width="1.54342" stroke-linecap="round" stroke-linejoin="round"/>
<path d="M383.497 335.932H366.988H290.016" stroke="#006B99" stroke-width="1.54342" stroke-linecap="round" stroke-linejoin="round"/>
<path d="M400.999 183.284V201.153V288.101" stroke="#006B99" stroke-width="1.54342" stroke-linecap="round" stroke-linejoin="round"/>
<path d="M137.669 186.594V154.053C137.669 151.351 138.743 148.759 140.655 146.848C142.566 144.937 145.158 143.863 147.861 143.863H368.239" stroke="#006B99" stroke-width="1.54342" stroke-linecap="round" stroke-linejoin="round"/>
<path d="M379.772 308.407H147.861C145.158 308.405 142.566 307.332 140.655 305.422C138.743 303.51 137.669 300.917 137.669 298.216V242.497" stroke="#006B99" stroke-width="1.54342" stroke-linecap="round" stroke-linejoin="round"/>
<path d="M391.946 180.542V184.632V289.094" stroke="#006B99" stroke-width="1.54342" stroke-linecap="round" stroke-linejoin="round"/>
<path d="M137.669 163.283H371.343" stroke="#006B99" stroke-width="1.54342" stroke-linecap="round" stroke-linejoin="round"/>
<path d="M368.664 157.416H174.213V149.651H367.616" stroke="#006B99" stroke-width="1.54342" stroke-linecap="round" stroke-linejoin="round"/>
<path d="M272.361 322.168C272.361 323.662 271.918 325.122 271.09 326.364C270.261 327.605 269.082 328.575 267.702 329.148C266.323 329.721 264.805 329.87 263.339 329.581C261.873 329.289 260.528 328.571 259.47 327.515C258.414 326.46 257.693 325.115 257.4 323.651C257.109 322.185 257.256 320.668 257.828 319.288C258.399 317.907 259.366 316.726 260.608 315.897C261.85 315.065 263.308 314.623 264.803 314.621C266.806 314.621 268.728 315.416 270.144 316.83C271.562 318.246 272.359 320.166 272.361 322.168Z" stroke="#006B99" stroke-width="1.54342" stroke-linecap="round" stroke-linejoin="round"/>
<path d="M231.848 370.121L239.599 335.932H290.018L294.497 355.7L297.77 370.121" stroke="#006B99" stroke-width="1.54342" stroke-linecap="round" stroke-linejoin="round"/>
<path d="M293.147 370.12H238.444" stroke="#006B99" stroke-width="1.54342" stroke-linecap="round" stroke-linejoin="round"/>
<path d="M239.597 335.932L294.497 355.7" stroke="#006B99" stroke-width="1.54342" stroke-linecap="round" stroke-linejoin="round"/>
<path d="M210.99 370.12H222.943" stroke="#006B99" stroke-width="1.54342" stroke-linecap="round" stroke-linejoin="round"/>
<path d="M226.492 370.12H231.846H238.444" stroke="#006B99" stroke-width="1.54342" stroke-linecap="round" stroke-linejoin="round"/>
<path d="M40.4745 370.12H52.4277" stroke="#006B99" stroke-width="1.54342" stroke-linecap="round" stroke-linejoin="round"/>
<path d="M99.1161 370.12H129.933" stroke="#006B99" stroke-width="1.54342" stroke-linecap="round" stroke-linejoin="round"/>
<path d="M55.9769 370.12H72.1437" stroke="#006B99" stroke-width="1.54342" stroke-linecap="round" stroke-linejoin="round"/>
<path d="M293.149 370.12H297.77H305.1" stroke="#006B99" stroke-width="1.54342" stroke-linecap="round" stroke-linejoin="round"/>
<path d="M308.649 370.12H320.601" stroke="#006B99" stroke-width="1.54342" stroke-linecap="round" stroke-linejoin="round"/>
<path d="M159.246 158.316L167.175 153.744L159.246 149.163" stroke="#006B99" stroke-width="1.54342" stroke-linecap="round" stroke-linejoin="round"/>
<path d="M154.123 149.163L146.186 153.744L154.123 158.316" stroke="#006B99" stroke-width="1.54342" stroke-linecap="round" stroke-linejoin="round"/>
<path d="M391.946 184.632L400.999 201.153" stroke="#006B99" stroke-width="1.54342" stroke-linecap="round" stroke-linejoin="round"/>
<path d="M374.701 308.405L366.99 335.932" stroke="#006B99" stroke-width="1.54342" stroke-linecap="round" stroke-linejoin="round"/>
<path d="M137.669 244.97L128.616 256.529" stroke="#006B99" stroke-width="1.54342" stroke-linecap="round" stroke-linejoin="round"/>
<path d="M99.1161 370.119H72.1437C67.8561 370.119 63.744 368.418 60.7122 365.387C57.6804 362.354 55.9769 358.244 55.9769 353.956V316.24H115.283V353.956C115.282 358.244 113.579 362.354 110.547 365.385C107.515 368.416 103.404 370.119 99.1161 370.119Z" stroke="#006B99" stroke-width="1.54342" stroke-linecap="round" stroke-linejoin="round"/>
<path d="M76.2977 316.24C76.2157 307.922 75.3568 299.63 73.7323 291.471C71.1596 278.676 66.0357 264.408 55.9775 256.527C55.5582 256.202 55.1462 255.876 54.7198 255.569C41.8211 246.29 27.6929 238.852 12.7425 233.468C12.7425 233.468 27.702 265.404 42.072 277.502C55.9775 289.218 69.8588 295.704 70.2613 316.24" stroke="#006B99" stroke-width="1.54342" stroke-linecap="round" stroke-linejoin="round"/>
<path d="M82.5064 294.549C79.365 301.337 77.7133 308.721 77.6631 316.201" stroke="#006B99" stroke-width="1.54342" stroke-linecap="round" stroke-linejoin="round"/>
<path d="M87.3502 286.273C86.6699 287.231 86.0183 288.218 85.398 289.216C84.3352 290.937 83.37 292.713 82.5067 294.541" stroke="#006B99" stroke-width="1.54342" stroke-linecap="round" stroke-linejoin="round"/>
<path d="M118.895 246.062C114.89 255.144 109.793 264.157 103.821 269.171C101.882 270.798 100.017 272.446 98.2252 274.114" stroke="#006B99" stroke-width="1.54342" stroke-linecap="round" stroke-linejoin="round"/>
<path d="M73.7325 291.471C74.5159 287.371 74.9302 282.723 75.4309 277.977C75.6561 275.839 75.8956 273.68 76.1902 271.547" stroke="#006B99" stroke-width="1.54342" stroke-linecap="round" stroke-linejoin="round"/>
<path d="M121.751 269.171C121.526 269.65 113.201 287.274 105.222 294.008C103.371 295.564 101.516 296.961 99.7655 298.319C97.9885 299.67 96.3077 301.143 94.7351 302.728C92.9993 304.437 91.6263 306.478 90.698 308.729C89.7699 310.982 89.3058 313.398 89.3334 315.833" stroke="#006B99" stroke-width="1.54342" stroke-linecap="round" stroke-linejoin="round"/>
<path d="M98.6903 281.158C105.803 276.157 113.553 272.129 121.734 269.183" stroke="#006B99" stroke-width="1.54342" stroke-linecap="round" stroke-linejoin="round"/>
<path d="M85.9011 315.845C85.9446 311.668 86.3338 307.503 87.0652 303.391C87.7626 299.151 88.9942 295.016 90.7302 291.086C92.2037 287.634 94.4753 284.583 97.3583 282.181C97.799 281.842 98.2398 281.499 98.6901 281.173" stroke="#006B99" stroke-width="1.54342" stroke-linecap="round" stroke-linejoin="round"/>
<path d="M94.7066 302.74C95.6602 307.185 96.2412 311.699 96.4432 316.24" stroke="#006B99" stroke-width="1.54342" stroke-linecap="round" stroke-linejoin="round"/>
<path d="M63.1683 250.756C66.9765 258.007 71.3515 264.946 76.2521 271.509C80.3243 277.105 84.2888 282.142 87.3502 286.281C88.6677 288.055 89.8079 289.657 90.73 291.084" stroke="#006B99" stroke-width="1.54342" stroke-linecap="round" stroke-linejoin="round"/>
<path d="M71.8252 189.568C66.7672 183.545 61.3145 177.864 55.5028 172.564C55.5028 172.564 44.5197 209.836 61.4722 247.221C61.9896 248.367 62.5333 249.498 63.1059 250.638" stroke="#006B99" stroke-width="1.54342" stroke-linecap="round" stroke-linejoin="round"/>
<path d="M98.6897 281.173C98.5435 278.839 98.3806 276.485 98.225 274.122C97.5495 264.218 96.8213 254.198 96.1241 246.068" stroke="#006B99" stroke-width="1.54342" stroke-linecap="round" stroke-linejoin="round"/>
<path d="M100.597 315.845C100.597 314.046 100.271 307.321 99.7439 298.331" stroke="#006B99" stroke-width="1.54342" stroke-linecap="round" stroke-linejoin="round"/>
<path d="M63.1687 250.757C63.1687 250.757 63.1447 250.718 63.1064 250.647C62.2705 249.237 53.0865 234.041 41.9334 227.487C41.9334 227.487 44.9779 247.409 54.7202 255.577C55.1224 255.918 55.5421 256.238 55.9777 256.535C66.7187 263.96 74.0512 268.834 75.4309 277.985" stroke="#006B99" stroke-width="1.54342" stroke-linecap="round" stroke-linejoin="round"/>
<path d="M82.5072 294.541C82.4762 298.804 83.7049 307.825 82.5072 315.837" stroke="#006B99" stroke-width="1.54342" stroke-linecap="round" stroke-linejoin="round"/>
<path d="M85.3976 289.216C85.3976 289.216 86.6695 296.788 87.0744 303.383" stroke="#006B99" stroke-width="1.54342" stroke-linecap="round" stroke-linejoin="round"/>
<path d="M163.208 168.823V299.881" stroke="#006B99" stroke-width="1.54342" stroke-linecap="round" stroke-linejoin="round"/>
<path d="M226.515 179.766H173.353C172.295 179.765 171.28 179.345 170.532 178.597C169.784 177.849 169.363 176.834 169.363 175.776C169.365 174.719 169.787 173.706 170.535 172.959C171.283 172.212 172.296 171.792 173.353 171.791H226.515C227.572 171.791 228.588 172.211 229.335 172.959C230.083 173.706 230.502 174.721 230.502 175.778C230.502 176.836 230.083 177.85 229.335 178.598C228.588 179.346 227.572 179.766 226.515 179.766Z" stroke="#006B99" stroke-width="1.54342" stroke-linecap="round" stroke-linejoin="round"/>
<path d="M371.771 171.822C371.656 171.822 371.562 171.791 371.455 171.791H248.535C247.477 171.791 246.464 172.211 245.714 172.959C244.967 173.706 244.547 174.721 244.547 175.778C244.547 176.836 244.967 177.85 245.714 178.598C246.464 179.346 247.477 179.766 248.535 179.766H367.896L371.771 171.822Z" stroke="#006B99" stroke-width="1.54342" stroke-linecap="round" stroke-linejoin="round"/>
<path d="M153.085 175.776C153.085 176.362 152.91 176.934 152.584 177.421C152.257 177.908 151.794 178.287 151.252 178.511C150.71 178.735 150.114 178.793 149.539 178.679C148.965 178.564 148.437 178.281 148.022 177.867C147.608 177.452 147.326 176.924 147.211 176.349C147.097 175.774 147.156 175.178 147.38 174.637C147.604 174.095 147.984 173.632 148.471 173.306C148.958 172.981 149.531 172.806 150.118 172.806C150.508 172.805 150.894 172.882 151.255 173.031C151.615 173.18 151.943 173.398 152.218 173.674C152.494 173.95 152.713 174.278 152.862 174.639C153.01 174.999 153.086 175.385 153.085 175.776Z" stroke="#006B99" stroke-width="1.54342" stroke-linecap="round" stroke-linejoin="round"/>
<path d="M257.519 196.813H173.353C172.821 196.827 172.292 196.733 171.797 196.538C171.302 196.344 170.85 196.053 170.47 195.681C170.089 195.309 169.786 194.865 169.58 194.376C169.373 193.886 169.267 193.359 169.267 192.826C169.267 192.296 169.373 191.769 169.58 191.278C169.786 190.788 170.089 190.344 170.47 189.973C170.85 189.601 171.302 189.31 171.797 189.115C172.292 188.921 172.821 188.827 173.353 188.84H257.519C258.05 188.827 258.579 188.921 259.075 189.115C259.569 189.31 260.02 189.601 260.401 189.973C260.782 190.344 261.085 190.788 261.292 191.278C261.497 191.769 261.605 192.296 261.605 192.826C261.605 193.359 261.497 193.886 261.292 194.376C261.085 194.865 260.782 195.309 260.401 195.681C260.02 196.053 259.569 196.344 259.075 196.538C258.579 196.733 258.05 196.827 257.519 196.813Z" stroke="#006B99" stroke-width="1.54342" stroke-linecap="round" stroke-linejoin="round"/>
<path d="M371.453 196.813H279.536C278.748 196.815 277.976 196.582 277.319 196.145C276.663 195.706 276.15 195.083 275.849 194.355C275.546 193.625 275.467 192.824 275.623 192.05C275.778 191.276 276.157 190.566 276.717 190.009C277.085 189.637 277.525 189.342 278.008 189.141C278.493 188.94 279.013 188.838 279.536 188.84H371.453C371.985 188.827 372.514 188.921 373.009 189.115C373.505 189.31 373.955 189.601 374.337 189.973C374.718 190.344 375.019 190.788 375.226 191.278C375.433 191.769 375.54 192.296 375.54 192.826C375.54 193.359 375.433 193.886 375.226 194.376C375.019 194.865 374.718 195.309 374.337 195.681C373.955 196.053 373.505 196.344 373.009 196.538C372.514 196.733 371.985 196.827 371.453 196.813Z" stroke="#006B99" stroke-width="1.54342" stroke-linecap="round" stroke-linejoin="round"/>
<path d="M153.085 192.824C153.085 193.411 152.911 193.984 152.585 194.47C152.259 194.957 151.796 195.336 151.254 195.56C150.712 195.785 150.116 195.844 149.541 195.729C148.966 195.614 148.438 195.332 148.023 194.919C147.609 194.503 147.326 193.976 147.211 193.401C147.097 192.824 147.156 192.228 147.38 191.688C147.604 191.146 147.984 190.683 148.471 190.357C148.958 190.031 149.531 189.857 150.118 189.856C150.508 189.856 150.894 189.932 151.254 190.081C151.614 190.23 151.942 190.448 152.218 190.724C152.493 191 152.712 191.327 152.861 191.688C153.01 192.048 153.086 192.433 153.085 192.824Z" stroke="#006B99" stroke-width="1.54342" stroke-linecap="round" stroke-linejoin="round"/>
<path d="M211.013 213.874H173.353C172.295 213.872 171.28 213.45 170.532 212.703C169.784 211.954 169.363 210.938 169.363 209.881C169.366 208.823 169.787 207.811 170.535 207.066C171.283 206.319 172.297 205.899 173.353 205.897H211.013C212.071 205.897 213.087 206.317 213.834 207.066C214.582 207.813 215.003 208.827 215.003 209.884C215.003 210.942 214.582 211.958 213.834 212.705C213.087 213.452 212.071 213.874 211.013 213.874Z" stroke="#006B99" stroke-width="1.54342" stroke-linecap="round" stroke-linejoin="round"/>
<path d="M371.455 213.874H233.032C231.974 213.872 230.96 213.45 230.211 212.701C229.464 211.954 229.042 210.938 229.042 209.881C229.046 208.825 229.468 207.813 230.215 207.066C230.964 206.321 231.976 205.899 233.032 205.897H371.455C372.512 205.897 373.526 206.317 374.274 207.066C375.023 207.813 375.443 208.827 375.443 209.884C375.443 210.942 375.023 211.958 374.274 212.705C373.526 213.452 372.512 213.874 371.455 213.874Z" stroke="#006B99" stroke-width="1.54342" stroke-linecap="round" stroke-linejoin="round"/>
<path d="M151.597 211.933C151.597 212.103 151.597 212.274 151.581 212.437C152.069 212.161 152.469 211.751 152.733 211.256C152.997 210.762 153.113 210.201 153.07 209.643C153.026 209.084 152.823 208.549 152.486 208.101C152.148 207.652 151.689 207.309 151.164 207.114H151.147C151.359 208.288 151.497 209.472 151.559 210.664V210.76C151.588 211.143 151.597 211.538 151.597 211.933Z" stroke="#006B99" stroke-width="1.54342" stroke-linecap="round" stroke-linejoin="round"/>
<path d="M304.023 230.911H173.353C172.295 230.911 171.28 230.489 170.532 229.742C169.784 228.993 169.363 227.979 169.363 226.921C169.365 225.864 169.786 224.85 170.534 224.105C171.282 223.358 172.296 222.938 173.353 222.938H304.023C305.063 222.963 306.054 223.394 306.78 224.139C307.507 224.885 307.915 225.883 307.915 226.925C307.915 227.966 307.507 228.964 306.78 229.709C306.054 230.455 305.063 230.886 304.023 230.911Z" stroke="#006B99" stroke-width="1.54342" stroke-linecap="round" stroke-linejoin="round"/>
<path d="M371.453 230.911H326.041C324.982 230.911 323.968 230.491 323.219 229.742C322.471 228.995 322.051 227.979 322.05 226.922C322.051 225.864 322.473 224.85 323.22 224.105C323.97 223.358 324.983 222.938 326.041 222.938H371.453C371.985 222.925 372.514 223.019 373.009 223.214C373.505 223.408 373.955 223.699 374.337 224.07C374.716 224.442 375.019 224.887 375.226 225.375C375.433 225.866 375.538 226.393 375.538 226.925C375.538 227.456 375.433 227.983 375.226 228.473C375.019 228.964 374.716 229.407 374.337 229.778C373.955 230.15 373.505 230.441 373.009 230.637C372.514 230.83 371.985 230.924 371.453 230.911Z" stroke="#006B99" stroke-width="1.54342" stroke-linecap="round" stroke-linejoin="round"/>
<path d="M148.922 224.172C149.162 223.932 149.914 223.95 150.12 223.95C150.907 223.95 151.662 224.262 152.219 224.818C152.775 225.375 153.088 226.13 153.088 226.916C153.088 227.703 152.775 228.458 152.219 229.016C151.662 229.571 150.907 229.884 150.12 229.884C149.487 229.868 148.875 229.656 148.371 229.272C147.867 228.889 147.497 228.358 147.313 227.753" stroke="#006B99" stroke-width="1.54342" stroke-linecap="round" stroke-linejoin="round"/>
<path d="M203.262 247.961H173.353C172.295 247.959 171.28 247.538 170.532 246.79C169.784 246.041 169.363 245.026 169.363 243.968C169.366 242.912 169.787 241.899 170.535 241.154C171.283 240.406 172.297 239.987 173.353 239.985H203.262C204.32 239.985 205.335 240.406 206.083 241.154C206.83 241.901 207.252 242.916 207.252 243.974C207.252 245.031 206.83 246.045 206.083 246.792C205.335 247.541 204.32 247.961 203.262 247.961Z" stroke="#006B99" stroke-width="1.54342" stroke-linecap="round" stroke-linejoin="round"/>
<path d="M371.455 247.961H225.282C224.225 247.959 223.209 247.538 222.462 246.79C221.712 246.041 221.291 245.028 221.291 243.968C221.294 242.912 221.716 241.901 222.465 241.154C223.213 240.408 224.226 239.987 225.282 239.985H371.455C372.512 239.985 373.526 240.406 374.274 241.154C375.023 241.901 375.443 242.916 375.443 243.974C375.443 245.031 375.023 246.045 374.274 246.792C373.526 247.541 372.512 247.961 371.455 247.961Z" stroke="#006B99" stroke-width="1.54342" stroke-linecap="round" stroke-linejoin="round"/>
<path d="M273.02 265.01H173.353C172.295 265.008 171.28 264.588 170.532 263.839C169.784 263.092 169.363 262.076 169.363 261.019C169.365 259.961 169.786 258.949 170.534 258.202C171.282 257.455 172.296 257.035 173.353 257.035H273.02C274.061 257.062 275.05 257.493 275.776 258.237C276.504 258.982 276.91 259.982 276.91 261.022C276.91 262.063 276.504 263.063 275.776 263.806C275.05 264.552 274.061 264.983 273.02 265.01Z" stroke="#006B99" stroke-width="1.54342" stroke-linecap="round" stroke-linejoin="round"/>
<path d="M371.453 265.01H295.039C293.981 265.008 292.967 264.588 292.218 263.839C291.469 263.092 291.047 262.076 291.047 261.019C291.049 259.961 291.473 258.949 292.22 258.202C292.969 257.457 293.983 257.037 295.039 257.035H371.453C372.493 257.062 373.484 257.493 374.21 258.237C374.937 258.982 375.345 259.982 375.345 261.022C375.345 262.063 374.937 263.063 374.21 263.806C373.484 264.552 372.493 264.983 371.453 265.01Z" stroke="#006B99" stroke-width="1.54342" stroke-linecap="round" stroke-linejoin="round"/>
<path d="M153.085 261.019C153.085 261.605 152.91 262.178 152.584 262.664C152.257 263.151 151.794 263.53 151.252 263.755C150.71 263.979 150.114 264.036 149.539 263.921C148.965 263.806 148.437 263.525 148.022 263.109C147.608 262.695 147.326 262.166 147.211 261.592C147.097 261.017 147.156 260.421 147.38 259.881C147.604 259.338 147.984 258.875 148.471 258.549C148.958 258.223 149.531 258.049 150.118 258.049C150.508 258.049 150.894 258.125 151.255 258.273C151.615 258.422 151.943 258.641 152.218 258.917C152.494 259.193 152.713 259.522 152.862 259.882C153.01 260.243 153.086 260.63 153.085 261.019Z" stroke="#006B99" stroke-width="1.54342" stroke-linecap="round" stroke-linejoin="round"/>
<path d="M327.277 282.056H173.353C172.295 282.056 171.28 281.635 170.532 280.887C169.784 280.138 169.363 279.125 169.363 278.067C169.366 277.009 169.787 275.998 170.535 275.251C171.283 274.505 172.297 274.084 173.353 274.084H327.277C328.318 274.109 329.309 274.54 330.035 275.285C330.761 276.03 331.169 277.029 331.169 278.069C331.169 279.111 330.761 280.11 330.035 280.855C329.309 281.6 328.318 282.031 327.277 282.056Z" stroke="#006B99" stroke-width="1.54342" stroke-linecap="round" stroke-linejoin="round"/>
<path d="M371.455 282.056H349.294C348.236 282.056 347.221 281.635 346.473 280.887C345.726 280.138 345.304 279.125 345.304 278.065C345.306 277.01 345.728 275.998 346.477 275.251C347.224 274.503 348.238 274.084 349.294 274.084H371.455C371.985 274.07 372.516 274.164 373.011 274.358C373.505 274.553 373.957 274.844 374.337 275.216C374.718 275.588 375.021 276.03 375.228 276.521C375.435 277.011 375.54 277.538 375.54 278.069C375.54 278.602 375.435 279.129 375.228 279.619C375.021 280.108 374.718 280.552 374.337 280.924C373.957 281.296 373.505 281.587 373.011 281.78C372.516 281.976 371.985 282.07 371.455 282.056Z" stroke="#006B99" stroke-width="1.54342" stroke-linecap="round" stroke-linejoin="round"/>
<path d="M153.085 278.059C153.085 278.646 152.911 279.219 152.585 279.705C152.259 280.192 151.796 280.573 151.254 280.797C150.712 281.022 150.116 281.079 149.541 280.964C148.966 280.851 148.438 280.567 148.023 280.154C147.609 279.74 147.326 279.211 147.211 278.636C147.097 278.061 147.156 277.465 147.38 276.923C147.604 276.381 147.984 275.919 148.471 275.592C148.958 275.266 149.531 275.092 150.118 275.092C150.508 275.092 150.894 275.168 151.254 275.316C151.614 275.465 151.942 275.684 152.218 275.96C152.493 276.235 152.712 276.563 152.861 276.923C153.01 277.283 153.086 277.669 153.085 278.059Z" stroke="#006B99" stroke-width="1.54342" stroke-linecap="round" stroke-linejoin="round"/>
<path d="M226.515 299.107H173.353C172.295 299.105 171.28 298.683 170.532 297.936C169.784 297.187 169.363 296.171 169.363 295.114C169.366 294.058 169.787 293.045 170.535 292.299C171.283 291.552 172.297 291.132 173.353 291.13H226.515C227.572 291.13 228.588 291.552 229.335 292.299C230.083 293.046 230.502 294.062 230.502 295.12C230.502 296.175 230.083 297.191 229.335 297.938C228.588 298.685 227.572 299.107 226.515 299.107Z" stroke="#006B99" stroke-width="1.54342" stroke-linecap="round" stroke-linejoin="round"/>
<path d="M371.455 299.107H248.535C247.477 299.105 246.462 298.683 245.712 297.936C244.965 297.187 244.543 296.171 244.542 295.114C244.547 294.058 244.969 293.045 245.718 292.299C246.466 291.552 247.479 291.132 248.535 291.13H371.455C372.512 291.13 373.526 291.552 374.274 292.299C375.023 293.046 375.443 294.062 375.443 295.12C375.443 296.175 375.023 297.191 374.274 297.938C373.526 298.685 372.512 299.107 371.455 299.107Z" stroke="#006B99" stroke-width="1.54342" stroke-linecap="round" stroke-linejoin="round"/>
<path d="M153.086 295.114C153.085 295.7 152.911 296.273 152.585 296.76C152.259 297.248 151.796 297.628 151.254 297.852C150.712 298.076 150.116 298.133 149.541 298.02C148.966 297.905 148.438 297.622 148.023 297.208C147.609 296.794 147.326 296.265 147.211 295.691C147.097 295.116 147.156 294.52 147.38 293.978C147.604 293.435 147.984 292.974 148.471 292.648C148.958 292.32 149.531 292.148 150.118 292.146C150.507 292.146 150.894 292.223 151.254 292.372C151.614 292.522 151.941 292.74 152.217 293.016C152.493 293.29 152.711 293.617 152.86 293.978C153.009 294.338 153.086 294.725 153.086 295.114Z" stroke="#006B99" stroke-width="1.54342" stroke-linecap="round" stroke-linejoin="round"/>
<path d="M96.8525 211.747C96.759 211.747 96.668 211.747 96.5746 211.747C96.4811 211.747 96.3805 211.747 96.2872 211.747C93.4094 211.599 90.703 210.335 88.7451 208.221C86.7871 206.108 85.7326 203.313 85.8064 200.433C85.8801 197.553 87.0763 194.815 89.1398 192.805C91.2033 190.794 93.9711 189.669 96.8525 189.669" stroke="#006B99" stroke-width="2.31632" stroke-linecap="round" stroke-linejoin="round"/>
<path d="M81.1654 211.731H96.8531C96.7596 211.731 96.6686 211.731 96.5752 211.731C93.6781 211.816 90.9303 213.036 88.9241 215.127C86.918 217.219 85.8142 220.014 85.8507 222.911C85.8871 225.808 87.0608 228.577 89.119 230.617C91.1771 232.656 93.9548 233.808 96.8531 233.819" stroke="#006B99" stroke-width="2.31632" stroke-linecap="round" stroke-linejoin="round"/>
<path d="M116.687 211.747C116.78 211.747 116.881 211.747 116.974 211.747C117.068 211.747 117.161 211.747 117.252 211.747C120.13 211.599 122.836 210.335 124.794 208.221C126.752 206.108 127.807 203.313 127.733 200.433C127.659 197.553 126.463 194.815 124.399 192.805C122.336 190.794 119.568 189.669 116.687 189.669" stroke="#006B99" stroke-width="2.31632" stroke-linecap="round" stroke-linejoin="round"/>
<path d="M132.374 211.731H116.687C116.78 211.731 116.881 211.731 116.974 211.731C119.872 211.816 122.62 213.036 124.626 215.129C126.632 217.221 127.735 220.018 127.698 222.917C127.66 225.814 126.484 228.583 124.425 230.621C122.365 232.66 119.586 233.81 116.687 233.819" stroke="#006B99" stroke-width="2.31632" stroke-linecap="round" stroke-linejoin="round"/>
<path d="M422.251 162.345L443.31 150.195L422.251 138.035" stroke="#006B99" stroke-width="2.31632" stroke-linecap="round" stroke-linejoin="round"/>
<path d="M400.635 138.035L379.576 150.195L400.635 162.345" stroke="#006B99" stroke-width="2.31632" stroke-linecap="round" stroke-linejoin="round"/>
<path d="M417.439 132.541L404.851 167.669" stroke="#006B99" stroke-width="1.54342" stroke-linecap="round" stroke-linejoin="round"/>
<path d="M398.797 333.25L402.208 322.896L410.301 298.331L418.399 322.896L421.81 333.25" stroke="#006B99" stroke-width="2.31632" stroke-linecap="round" stroke-linejoin="round"/>
<path d="M402.208 322.896H418.399" stroke="#006B99" stroke-width="2.31632" stroke-linecap="round" stroke-linejoin="round"/>
<path d="M439.333 327.222C437.11 331.987 432.946 334.754 430.048 333.405C427.149 332.056 426.609 327.09 428.832 322.317C431.055 317.543 435.209 314.783 438.116 316.132C439.009 316.68 439.728 317.474 440.186 318.416C440.644 319.359 440.824 320.413 440.705 321.455C440.669 323.453 440.201 325.421 439.333 327.222Z" stroke="#006B99" stroke-width="1.54342" stroke-linecap="round" stroke-linejoin="round"/>
<path d="M440.699 321.384C440.699 321.409 440.699 321.432 440.699 321.455C441.125 325.647 438.561 336.691 445.251 332.196" stroke="#006B99" stroke-width="1.54342" stroke-linecap="round" stroke-linejoin="round"/>
</svg>
